<!-- Generator: Adobe Illustrator 19.0.0, SVG Export Plug-In  -->
<svg version="1.1"
	 xmlns="http://www.w3.org/2000/svg" xmlns:xlink="http://www.w3.org/1999/xlink" xmlns:a="http://ns.adobe.com/AdobeSVGViewerExtensions/3.0/"
	 x="0px" y="0px" width="25.2px" height="25.2px" viewBox="0 0 25.2 25.2" style="enable-background:new 0 0 25.2 25.2;"
	 xml:space="preserve">
<style type="text/css">
	.st0{fill:#FFFFFF;}
</style>
<defs>
</defs>
<g>
	<path class="st0" d="M3.6,14.7c3.1,3.1,8,3.1,11.1,0c1.5-1.5,2.3-3.5,2.3-5.5c0-2.1-0.8-4.1-2.3-5.5c-1.5-1.5-3.5-2.3-5.5-2.3
		c-2,0-4,0.8-5.5,2.3C2.1,5.1,1.3,7,1.3,9.1S2.1,13.2,3.6,14.7L3.6,14.7z M17.4,19.6l2.2-2.2l-0.9-0.9l-2.2,2.2L17.4,19.6L17.4,19.6
		z M21.2,23.4c0.3,0.3,0.7,0.5,1.1,0.5c0.4,0,0.8-0.2,1.1-0.5c0.3-0.3,0.5-0.7,0.5-1.1c0-0.4-0.2-0.8-0.5-1.1l-2.9-2.9l-2.2,2.2
		L21.2,23.4L21.2,23.4z M2.7,2.7c3.6-3.6,9.4-3.6,12.9,0c1.7,1.7,2.7,4,2.7,6.5c0,2.2-0.8,4.3-2.2,6l1.1,1.1l1.1-1.1
		c0.1-0.1,0.3-0.2,0.5-0.2c0.2,0,0.3,0.1,0.5,0.2l5.2,5.2c0.5,0.5,0.8,1.3,0.8,2c0,0.8-0.3,1.5-0.8,2c-0.5,0.5-1.3,0.8-2,0.8
		c-0.8,0-1.5-0.3-2-0.8l-5.2-5.2c-0.1-0.1-0.2-0.3-0.2-0.5c0-0.2,0.1-0.3,0.2-0.5l1.1-1.1L15.1,16c-1.7,1.5-3.8,2.2-6,2.2
		c-2.3,0-4.7-0.9-6.5-2.7C1,13.9,0,11.6,0,9.1C0,6.7,1,4.4,2.7,2.7L2.7,2.7z"/>
	<path class="st0" d="M5.6,12.7c2,2,5.2,2,7.1,0s2-5.2,0-7.1c-1-1-2.3-1.5-3.6-1.5c-1.3,0-2.6,0.5-3.6,1.5
		C3.6,7.5,3.6,10.7,5.6,12.7L5.6,12.7z M4.7,4.7c2.5-2.5,6.5-2.5,9,0c2.5,2.5,2.5,6.5,0,9c-1.2,1.2-2.9,1.9-4.5,1.9
		c-1.6,0-3.2-0.6-4.5-1.9v0C2.2,11.1,2.2,7.1,4.7,4.7L4.7,4.7z"/>
	<path class="st0" d="M11.6,6.7c0.3,0.3,0.3,0.7,0,0.9c-0.3,0.3-0.7,0.3-0.9,0c-0.8-0.8-2.2-0.8-3,0C7.5,7.8,7.3,7.8,7.2,7.8
		C7,7.8,6.9,7.8,6.7,7.6C6.5,7.4,6.5,7,6.7,6.7C8.1,5.4,10.2,5.4,11.6,6.7L11.6,6.7z"/>
</g>
</svg>
